<?xml version="1.0" encoding="iso-8859-1"?>
<!-- Generator: Adobe Illustrator 16.0.0, SVG Export Plug-In . SVG Version: 6.00 Build 0)  -->
<!DOCTYPE svg PUBLIC "-//W3C//DTD SVG 1.1//EN" "http://www.w3.org/Graphics/SVG/1.1/DTD/svg11.dtd">
<svg version="1.1" id="Capa_1" xmlns="http://www.w3.org/2000/svg" xmlns:xlink="http://www.w3.org/1999/xlink" x="0px" y="0px"
	 width="457.825px" height="457.825px"  viewBox="0 0 457.825 457.825" style="enable-background:new 0 0 457.825 457.825;"
	 xml:space="preserve">
<g>
	<path style="fill: #fff;" d="M418.872,117.344v51.916h-20.708V54.635L371.298,27.77H86.527L59.662,54.635V169.26H38.954v-51.916H0v51.916v14.776h38.954
		h8.277l-41.91,40.969v126.261H19.97v78.789h70.907v-78.789h276.07v78.789h70.908v-78.789h13.978V225.005l-41.911-40.969h8.949
		h38.954V169.26v-51.916H418.872z M113.392,81.5h231.041v88.655H113.392V81.5z M128.419,303.944H54.923v-45.875h73.496V303.944
		L128.419,303.944z M290.41,310.566H167.416v-65.997H290.41V310.566z M402.903,303.944h-73.496v-45.875h73.496V303.944z"/>
</g>
<g>
</g>
<g>
</g>
<g>
</g>
<g>
</g>
<g>
</g>
<g>
</g>
<g>
</g>
<g>
</g>
<g>
</g>
<g>
</g>
<g>
</g>
<g>
</g>
<g>
</g>
<g>
</g>
<g>
</g>
</svg>
